<?xml version="1.0" standalone="no"?><!DOCTYPE svg PUBLIC "-//W3C//DTD SVG 1.1//EN" "http://www.w3.org/Graphics/SVG/1.1/DTD/svg11.dtd"><svg t="1637745375133" class="icon" viewBox="0 0 1365 1024" version="1.1" xmlns="http://www.w3.org/2000/svg" p-id="2957" xmlns:xlink="http://www.w3.org/1999/xlink" width="266.6015625" height="200"><defs><style type="text/css"></style></defs><path d="M682.854233 0c209.577949 0 383.828906 151.209963 419.668898 350.463914a341.332917 341.332917 0 0 1 260.521936 371.71191A341.247917 341.247917 0 0 1 1024.01615 1023.99975H341.691317A341.247917 341.247917 0 0 1 2.321399 722.175824a341.332917 341.332917 0 0 1 260.863937-371.79691A426.537896 426.537896 0 0 1 682.854233 0z m597.161854 682.665833a255.999938 255.999938 0 0 0-255.999937-255.999937 341.332917 341.332917 0 0 0-682.239833-17.065996l-0.426 17.065996a255.999938 255.999938 0 1 0 0 511.999875h682.665833a255.999938 255.999938 0 0 0 255.999937-255.999938z" fill="#FFFFFF" p-id="2958"></path><path d="M768.486212 384.852906a42.66699 42.66699 0 0 1 42.66599 42.66699v341.332916a42.66699 42.66699 0 0 1-85.332979 0V427.519896a42.66699 42.66699 0 0 1 42.666989-42.66699z" fill="#FFFFFF" p-id="2959"></path><path d="M739.00322 394.239904a42.66699 42.66699 0 0 1 59.732985-8.447998l136.234967 102.740975a42.66699 42.66699 0 1 1-51.369988 68.095983L747.322218 453.972889a42.66699 42.66699 0 0 1-8.362998-59.732985z m-319.999922 247.892939a42.66699 42.66699 0 0 1 59.732985-8.447998l136.277967 102.740975a42.66699 42.66699 0 0 1-51.285988 68.095984L427.366296 701.865829a42.66699 42.66699 0 0 1-8.362998-59.732986z" fill="#FFFFFF" p-id="2960"></path><path d="M591.248256 812.031802a42.66699 42.66699 0 0 1-42.66599-42.66699V428.031896a42.66699 42.66699 0 0 1 85.332979 0v341.332916a42.66699 42.66699 0 0 1-42.666989 42.66699z" fill="#FFFFFF" p-id="2961"></path></svg>