<?xml version="1.0" standalone="no"?><!DOCTYPE svg PUBLIC "-//W3C//DTD SVG 1.1//EN" "http://www.w3.org/Graphics/SVG/1.1/DTD/svg11.dtd"><svg t="1629264417699" class="icon" viewBox="0 0 1024 1024" version="1.1" xmlns="http://www.w3.org/2000/svg" p-id="2892" width="30" height="30" xmlns:xlink="http://www.w3.org/1999/xlink"><defs><style type="text/css"></style></defs><path d="M667.425525 425.955793h-388.421637a10.009108 10.009108 0 0 0-10.009108 9.895368v74.727091c0 5.459513 4.549595 9.952238 10.009108 9.952238h388.421637a10.009108 10.009108 0 0 0 10.009108-9.952238V435.794291a10.009108 10.009108 0 0 0-10.009108-9.952238v0.05687z m-146.951905 241.412862v-388.421637a10.009108 10.009108 0 0 0-9.952238-10.009108H435.794291a10.009108 10.009108 0 0 0-9.952238 10.009108v388.421637c0 5.516383 4.492725 10.009108 9.952238 10.009108H510.691992c5.459513 0 9.895368-4.492725 9.895368-10.009108z m500.569144 286.453849l-181.813174-181.756304a472.873487 472.873487 0 0 0-32.415861-633.815395c-184.25858-184.31545-483.508164-184.31545-668.562924 0-184.31545 184.99789-184.31545 484.361213 0 668.619794a472.873487 472.873487 0 0 0 633.815395 32.415861l181.756304 181.756304c3.980895 3.469066 10.293458 3.469066 13.648783 0l53.571477-53.514607c3.469066-3.412196 3.469066-9.724758 0-13.648783z m-280.141287-212.921027a378.696879 378.696879 0 0 1-535.373542 0 378.696879 378.696879 0 0 1 0-535.373542 378.696879 378.696879 0 0 1 535.373542 0 378.696879 378.696879 0 0 1 0 535.373542z" fill="#999999" p-id="2893"></path></svg>