<?xml version="1.0" standalone="no"?><!DOCTYPE svg PUBLIC "-//W3C//DTD SVG 1.1//EN" "http://www.w3.org/Graphics/SVG/1.1/DTD/svg11.dtd"><svg t="1629264536026" class="icon" viewBox="0 0 1080 1024" version="1.1" xmlns="http://www.w3.org/2000/svg" p-id="3079" xmlns:xlink="http://www.w3.org/1999/xlink" width="31.640625" height="30"><defs><style type="text/css"></style></defs><path d="M686.420082 425.955793H297.998445a10.009108 10.009108 0 0 0-10.065978 9.895368v74.727091c0 5.459513 4.549595 9.952238 10.009108 9.952238h388.421637a10.009108 10.009108 0 0 0 10.009108-9.952238V435.794291a10.009108 10.009108 0 0 0-10.009108-9.952238v0.05687z m353.560369 527.866711l-181.756303-181.756304a472.873487 472.873487 0 0 0-32.415862-633.815395C641.549706-46.064645 342.356992-46.064645 157.188493 138.250805c-184.31545 184.99789-184.31545 484.361213 0 668.619794a472.873487 472.873487 0 0 0 633.815395 32.415861l181.756303 181.756304c3.980895 3.469066 10.350328 3.469066 13.648784 0l53.571476-53.514607c3.525936-3.412196 3.525936-9.724758 0-13.648783z m-280.141286-212.921027a378.696879 378.696879 0 0 1-535.373542 0 378.696879 378.696879 0 0 1 0-535.373542 378.696879 378.696879 0 0 1 535.373542 0 378.696879 378.696879 0 0 1 0 535.373542z" fill="#999999" p-id="3080"></path></svg>