<?xml version="1.0" standalone="no"?><!DOCTYPE svg PUBLIC "-//W3C//DTD SVG 1.1//EN" "http://www.w3.org/Graphics/SVG/1.1/DTD/svg11.dtd"><svg t="1629265500928" class="icon" viewBox="0 0 1185 1024" version="1.1" xmlns="http://www.w3.org/2000/svg" p-id="3460" width="23.14453125" height="20" xmlns:xlink="http://www.w3.org/1999/xlink"><defs><style type="text/css"></style></defs><path d="M1075.902787 155.378526H889.265314L844.802156 29.426526a44.032 44.032 0 0 0-41.498948-29.426526H382.385314a43.816421 43.816421 0 0 0-41.283369 29.426526L296.423208 155.378526H109.785735A110.376421 110.376421 0 0 0 0.002156 266.401684V898.964211c0 61.332211 49.098105 111.023158 109.783579 111.023157h966.117052A110.376421 110.376421 0 0 0 1185.686366 898.964211V266.401684c0-61.332211-49.098105-111.023158-109.783579-111.023158z m10.994527 743.639579c0 6.090105-4.904421 11.102316-10.994527 11.102316H109.785735a11.048421 11.048421 0 0 1-10.994527-11.102316V266.401684c0-6.144 4.958316-11.102316 10.994527-11.102316h256.215579l23.498105-66.290526 31.366737-89.141895h343.794526l31.420632 89.088 23.44421 66.290527h256.377263c6.036211 0 10.994526 5.012211 10.994527 11.15621V898.964211zM592.844261 344.064c-121.263158 0-219.567158 99.381895-219.567158 221.992421 0 122.664421 98.250105 221.992421 219.567158 221.992421 121.263158 0 219.567158-99.328 219.567158-221.992421 0-122.610526-98.250105-221.992421-219.567158-221.992421z m0 355.166316c-72.757895 0-131.718737-59.661474-131.718737-133.173895S520.086366 432.882526 592.844261 432.882526c72.757895 0 131.718737 59.661474 131.718737 133.173895 0 73.566316-59.014737 133.173895-131.718737 133.173895z" fill="#FFFFFF" p-id="3461"></path></svg>