<?xml version="1.0" encoding="UTF-8"?>
<svg width="15px" height="13px" viewBox="0 0 15 13" version="1.1" xmlns="http://www.w3.org/2000/svg" xmlns:xlink="http://www.w3.org/1999/xlink">
    <title>编组 2</title>
    <g id="页面-1" stroke="none" stroke-width="1" fill="none" fill-rule="evenodd">
        <g id="知情同意书-已签署" transform="translate(-993.000000, -146.000000)" fill="#799FFB" fill-rule="nonzero">
            <g id="编组-2" transform="translate(993.000000, 146.000000)">
                <path d="M10.1032629,3.13129656 L10.1032629,4.74838757 L10.4380483,4.16999236 C10.5753608,3.93246115 10.7847739,3.76516045 11.0217413,3.66987957 L11.0217413,2.67681123 L10.1032629,1.78215507 L10.1032629,1.78931232 L9.18478442,0.89465616 L9.19213224,0.89465616 L8.2736538,1.21680443e-13 L0.918478442,1.21680443e-13 C0.411019103,1.21680443e-13 -2.66453526e-15,0.40080596 -2.66453526e-15,0.89465616 L-2.66453526e-15,12.0778582 C-2.66453526e-15,12.5717084 0.411019103,12.9725143 0.918478442,12.9725143 C0.918478442,12.9725143 4.86288411,12.9819082 7.60729769,12.9810736 L7.75241729,12.0778582 L0.918478442,12.0778582 L0.918478442,0.89465616 L7.80706675,0.89465616 L7.80706675,2.53500823 C7.80706675,2.8642417 8.08123257,3.13129656 8.41923264,3.13129656 L10.1032629,3.13129656 Z" id="路径"></path>
                <path d="M5.50857445,8.49923352 L5.51316685,8.49923352 C5.76528918,8.49923352 5.97010987,8.30017252 5.97010987,8.05414208 L5.97010987,6.7099212 L7.34782753,6.7099212 C7.60132758,6.7099212 7.80706675,6.50951822 7.80706675,6.26259312 C7.80706675,6.01566802 7.60132758,5.81526504 7.34782753,5.81526504 L5.97010987,5.81526504 L5.97010987,4.47104416 C5.97010987,4.22501372 5.76528918,4.02595272 5.51316685,4.02595272 L5.50857445,4.02595272 C5.25599288,4.02595272 5.05163143,4.22501372 5.05163143,4.47104416 L5.05163143,5.81526504 L3.67391377,5.81526504 C3.42041372,5.81526504 3.21467455,6.01566802 3.21467455,6.26259312 C3.21467455,6.50951822 3.42041372,6.7099212 3.67391377,6.7099212 L5.05163143,6.7099212 L5.05163143,8.05414208 C5.05163143,8.30017252 5.25599288,8.49923352 5.50857445,8.49923352 Z" id="路径"></path>
                <g id="编组" transform="translate(10.495540, 8.745945) rotate(-17.000000) translate(-10.495540, -8.745945) translate(7.495540, 5.277565)">
                    <path d="M4.81250048,2.36628329 L1.3156151,6.53370226 C1.2983103,6.55434468 1.27559548,6.56975639 1.25001943,6.57820808 L0.19102917,6.92921473 C0.0883711602,6.96325315 -0.0141317772,6.8771879 0.00160808385,6.7702654 L0.163348725,5.66645918 C0.167225538,5.63978671 0.178468296,5.6147425 0.195836418,5.59411785 L3.6927218,1.42669888 C3.74428341,1.36521263 3.83593127,1.35722639 3.89741753,1.408788 L4.79458961,2.1616651 C4.85599833,2.21314918 4.8640621,2.30479704 4.81250048,2.36628329 L4.81250048,2.36628329 Z M5.96600744,0.991565383 L5.45504348,1.60045764 C5.40348187,1.6619439 5.31183401,1.66993013 5.25034775,1.61836852 L4.35317567,0.865491422 C4.29168942,0.813929809 4.28370318,0.722281948 4.3352648,0.660795693 L4.84622876,0.0519034333 C4.89779037,-0.00958282189 4.98943823,-0.0175690568 5.05092449,0.0339925569 L5.94809657,0.786869654 C6.00958282,0.838431267 6.01756906,0.930079128 5.96600744,0.991565383 Z" id="形状"></path>
                </g>
            </g>
        </g>
    </g>
</svg>