<?xml version="1.0" standalone="no"?><!DOCTYPE svg PUBLIC "-//W3C//DTD SVG 1.1//EN" "http://www.w3.org/Graphics/SVG/1.1/DTD/svg11.dtd"><svg t="1629264550107" class="icon" viewBox="0 0 1077 1024" version="1.1" xmlns="http://www.w3.org/2000/svg" p-id="3206" xmlns:xlink="http://www.w3.org/1999/xlink" width="31.552734375" height="30"><defs><style type="text/css"></style></defs><path d="M189.463927 460.779825h409.418778a153.532042 153.532042 0 0 1 153.532042 153.585913v256.048349A153.639784 153.639784 0 0 1 598.882705 1024h-409.418778a153.532042 153.532042 0 0 1-153.532042-153.585913v-256.048349a153.532042 153.532042 0 0 1 153.532042-153.532042z m0 76.819892c-42.396392 0-76.766021 34.369629-76.766021 76.766021v256.048349c0 42.396392 34.369629 76.766021 76.766021 76.766021h409.418778c42.396392 0 76.766021-34.369629 76.766021-76.766021v-256.048349c0-42.396392-34.369629-76.766021-76.766021-76.766021h-409.418778z m283.684116-408.772327c343.804032 13.359981 542.479881 228.197098 586.061433 596.350773a38.302204 38.302204 0 0 1-33.615436 42.558004 38.356075 38.356075 0 0 1-42.665747-33.507694c-38.894784-328.827924-205.086485-515.275081-508.164123-528.688933L536.446341 267.113969A38.409946 38.409946 0 0 1 482.144482 321.52357L362.012393 201.283739a38.248333 38.248333 0 0 1-19.016424-33.992533 38.194462 38.194462 0 0 1 11.259016-28.120605L482.144482 11.227233a38.356075 38.356075 0 0 1 54.247988 54.301859L473.148043 128.82739z" fill="#999999" p-id="3207"></path></svg>